<svg width="70" height="70" fill="none" xmlns="http://www.w3.org/2000/svg"><g clip-path="url(#clip0)"><path d="M9.583 57.118a1.025 1.025 0 000 2.05c3.181 0 5.77-2.919 5.77-6.507 0-3.588-2.589-6.507-5.77-6.507-3.182 0-5.77 2.92-5.77 6.507a1.025 1.025 0 002.05 0c0-2.457 1.669-4.456 3.72-4.456 2.05 0 3.72 2 3.72 4.456 0 2.458-1.67 4.457-3.72 4.457z" fill="url(#paint0_linear)"/><path d="M20.479 41.534a1.025 1.025 0 000-2.051c-2.067 0-3.748-2.014-3.748-4.49 0-2.476 1.68-4.49 3.748-4.49 2.067 0 3.748 2.014 3.748 4.49a1.025 1.025 0 002.05 0c0-3.606-2.6-6.54-5.798-6.54s-5.8 2.934-5.8 6.54c0 3.607 2.602 6.54 5.8 6.54z" fill="url(#paint1_linear)"/><path d="M60.417 41.749h-3.531c1.32-1.905 2.05-4.267 2.05-6.757a12.09 12.09 0 00-.906-4.641 1.026 1.026 0 00-1.896.782 10.06 10.06 0 01.752 3.86c0 .947-.126 1.872-.367 2.745H40.201a1.025 1.025 0 100 2.05h15.49a8.634 8.634 0 01-1.465 1.96H31.528c-1.71.004-3.315.519-4.705 1.418 1.986-2.001 3.24-4.923 3.24-8.173 0-.49-.029-.973-.084-1.446H40.2a1.025 1.025 0 000-2.05H29.558c-.648-2.177-1.884-4.048-3.492-5.366h23.288c1.661 0 3.237.626 4.557 1.81a1.025 1.025 0 001.369-1.527c-1.703-1.527-3.752-2.333-5.926-2.333h-19.38l-1.054-2.904c2.203-1.951 3.686-4.668 2.685-7.424-1.973-5.428-7.299-7.022-8.347-7.287a1.29 1.29 0 00-1.367.497c-.634.875-3.695 5.518-1.723 10.946 1 2.751 3.875 3.886 6.824 3.968l.801 2.204h-7.314c-5.284 0-9.583 4.895-9.583 10.912 0 2.55.771 4.897 2.062 6.756H9.57a8.566 8.566 0 00-4.214 1.115 1.026 1.026 0 001.002 1.79 6.535 6.535 0 013.226-.854c4.153 0 7.533 3.975 7.533 8.862 0 4.886-3.38 8.861-7.533 8.861-4.153 0-7.532-3.976-7.532-8.862 0-1.947.528-3.795 1.526-5.344a1.025 1.025 0 00-1.723-1.111C.64 48.086 0 50.319 0 52.66c0 6.006 4.284 10.895 9.555 10.913h42.927a1.025 1.025 0 000-2.05H37.128c2.42-1.983 3.997-5.217 3.997-8.863 0-.833-.082-1.645-.238-2.425h18.601a1.025 1.025 0 000-2.051H40.282c-.698-1.758-1.792-3.27-3.153-4.386h23.288c4.153 0 7.532 3.976 7.532 8.862 0 1.102-.171 2.157-.485 3.131H54.873a1.025 1.025 0 000 2.05h11.651c-1.369 2.229-3.596 3.681-6.107 3.681h-3.535a1.025 1.025 0 000 2.051h3.535c5.284 0 9.583-4.895 9.583-10.913 0-6.017-4.299-10.912-9.583-10.912zM22.096 17.208c-1.41-3.878.34-7.305 1.164-8.608 1.467.47 5.008 1.974 6.417 5.853.67 1.846-.548 3.59-1.523 4.615l-2.65-7.292a1.025 1.025 0 10-1.927.7l2.65 7.292c-1.406-.16-3.461-.715-4.131-2.56zm-1.625 8.923h.044c4.137.023 7.497 3.99 7.497 8.862 0 4.886-3.38 8.862-7.533 8.862-4.153 0-7.532-3.975-7.532-8.862 0-4.883 3.374-8.857 7.524-8.862zm-1.304 26.53c0-3.118-1.155-5.935-3.003-7.925a8.6 8.6 0 004.316 1.17h3.54c-1.29 1.86-2.061 4.207-2.061 6.755 0 3.646 1.578 6.88 3.997 8.862H15.17c2.419-1.983 3.997-5.216 3.997-8.862zm19.908 0c0 4.886-3.38 8.862-7.533 8.862-4.153 0-7.532-3.975-7.532-8.862 0-4.886 3.379-8.862 7.532-8.862 4.154 0 7.533 3.976 7.533 8.862z" fill="url(#paint2_linear)"/><path d="M31.542 45.876a1.025 1.025 0 000 2.05c2.184 0 3.96 2.125 3.96 4.735 0 2.611-1.776 4.735-3.96 4.735-2.183 0-3.96-2.124-3.96-4.735a1.025 1.025 0 00-2.05 0c0 3.742 2.696 6.786 6.01 6.786 3.315 0 6.011-3.044 6.011-6.786 0-3.741-2.696-6.785-6.01-6.785z" fill="url(#paint3_linear)"/><path d="M46.378 31.496a1.025 1.025 0 000 2.05h3.881a1.025 1.025 0 000-2.05h-3.881z" fill="url(#paint4_linear)"/><path d="M44.556 55.792a1.025 1.025 0 000 2.051h3.203a1.025 1.025 0 000-2.05h-3.203z" fill="url(#paint5_linear)"/></g><defs><linearGradient id="paint0_linear" x1="6.529" y1="47.022" x2="9.54" y2="57.317" gradientUnits="userSpaceOnUse"><stop stop-color="#FF9700"/><stop offset=".998" stop-color="#FF6800"/><stop offset="1" stop-color="#FF6802"/></linearGradient><linearGradient id="paint1_linear" x1="17.41" y1="29.325" x2="20.436" y2="39.672" gradientUnits="userSpaceOnUse"><stop stop-color="#FF9700"/><stop offset=".998" stop-color="#FF6800"/><stop offset="1" stop-color="#FF6802"/></linearGradient><linearGradient id="paint2_linear" x1="16.479" y1="10.236" x2="26.423" y2="57.204" gradientUnits="userSpaceOnUse"><stop stop-color="#FF9700"/><stop offset=".998" stop-color="#FF6800"/><stop offset="1" stop-color="#FF6802"/></linearGradient><linearGradient id="paint3_linear" x1="28.361" y1="46.781" x2="31.503" y2="57.514" gradientUnits="userSpaceOnUse"><stop stop-color="#FF9700"/><stop offset=".998" stop-color="#FF6800"/><stop offset="1" stop-color="#FF6802"/></linearGradient><linearGradient id="paint4_linear" x1="46.749" y1="31.633" x2="46.906" y2="33.38" gradientUnits="userSpaceOnUse"><stop stop-color="#FF9700"/><stop offset=".998" stop-color="#FF6800"/><stop offset="1" stop-color="#FF6802"/></linearGradient><linearGradient id="paint5_linear" x1="44.767" y1="55.929" x2="44.944" y2="57.672" gradientUnits="userSpaceOnUse"><stop stop-color="#FF9700"/><stop offset=".998" stop-color="#FF6800"/><stop offset="1" stop-color="#FF6802"/></linearGradient><clipPath id="clip0"><path fill="#fff" d="M0 0h70v70H0z"/></clipPath></defs></svg>