<svg width="70" height="70" fill="none" xmlns="http://www.w3.org/2000/svg"><path d="M68.834 0h-52.5c-.645 0-1.167.522-1.167 1.167v17.5H17.5V2.333h50.167V66.5a1.148 1.148 0 01-1.075 1.166c-.1 0-.2-.008-.3-.01-.207-.006-.414-.01-.617-.032-.017 0-.034 0-.051-.006a8.178 8.178 0 01-7.24-7.234c0-.016-.006-.034-.008-.05a8.155 8.155 0 01-.042-.834v-2.334c0-.644-.523-1.166-1.167-1.166H17.5V35h-2.333v21H5.834c-.645 0-1.167.522-1.167 1.166V59.5c.006 5.796 4.704 10.493 10.5 10.5h51.45A3.474 3.474 0 0070 66.5V1.167C70 .522 69.478 0 68.834 0zM15.166 67.666A8.176 8.176 0 017 59.5v-1.167h49V59.5c.002.385.024.769.067 1.151.01.102.03.2.044.3.039.282.085.564.147.84.021.097.048.193.072.29a10.55 10.55 0 00.33 1.063c.106.29.226.572.358.851.027.057.053.117.081.17.147.295.307.582.482.861l.068.117c.19.298.395.586.614.863l.038.05a10.28 10.28 0 001.598 1.614l-44.732-.004z" fill="url(#paint0_linear)"/><path d="M38.5 32.667c.31 0 .606-.123.825-.342l4.666-4.667a1.167 1.167 0 000-1.65l-4.666-4.666A1.166 1.166 0 0038.5 21H5.833a5.833 5.833 0 000 11.667H38.5zm-.301-9.152l3.318 3.318-3.318 3.318-.83-3.318.83-3.318zm-28.866-.182H35.84l-.583 2.334h-23.59V28h23.59l.583 2.333H9.333v-7zm-7 3.5a3.5 3.5 0 013.5-3.5H7v7H5.833a3.5 3.5 0 01-3.5-3.5z" fill="url(#paint1_linear)"/><path d="M26.833 50.166h35c.645 0 1.167-.522 1.167-1.166V14a1.167 1.167 0 00-1.992-.825l-35 35a1.167 1.167 0 00.825 1.991zm33.834-33.35v3.017h-2.334v2.334h2.334V24.5h-2.334v2.333h2.334v2.334h-2.334V31.5h2.334v2.333h-2.334v2.334h2.334V38.5h-2.334v2.333h2.334v2.334h-2.334V45.5h2.334v2.333h-2.334V45.5H56v2.333h-2.333V45.5h-2.334v2.333H49V45.5h-2.333v2.333h-2.334V45.5H42v2.333h-2.333V45.5h-2.334v2.333H35V45.5h-2.333v2.333H29.65l31.017-31.017z" fill="url(#paint2_linear)"/><path d="M43.732 43.166h11.1c.645 0 1.167-.522 1.167-1.166V30.899a1.166 1.166 0 00-1.991-.825L42.907 41.175a1.167 1.167 0 00.825 1.992zm9.934-9.45v7.117h-7.117l7.117-7.116z" fill="url(#paint3_linear)"/><path d="M53.666 7H30.333v2.333h23.333V7z" fill="url(#paint4_linear)"/><path d="M57.166 11.667H26.833V14h30.333v-2.333z" fill="url(#paint5_linear)"/><path d="M26.833 36.166h-7V38.5h7v-2.334z" fill="url(#paint6_linear)"/><path d="M24.5 40.833h-4.667v2.334H24.5v-2.334z" fill="url(#paint7_linear)"/><defs><linearGradient id="paint0_linear" x1="20.047" y1="4.666" x2="35.551" y2="60.468" gradientUnits="userSpaceOnUse"><stop stop-color="#FF9700"/><stop offset=".998" stop-color="#FF6800"/><stop offset="1" stop-color="#FF6802"/></linearGradient><linearGradient id="paint1_linear" x1="10.437" y1="21.778" x2="11.117" y2="31.75" gradientUnits="userSpaceOnUse"><stop stop-color="#FF9700"/><stop offset=".998" stop-color="#FF6800"/><stop offset="1" stop-color="#FF6802"/></linearGradient><linearGradient id="paint2_linear" x1="34.456" y1="15.322" x2="42.245" y2="45.36" gradientUnits="userSpaceOnUse"><stop stop-color="#FF9700"/><stop offset=".998" stop-color="#FF6800"/><stop offset="1" stop-color="#FF6802"/></linearGradient><linearGradient id="paint3_linear" x1="45.728" y1="30.628" x2="48.531" y2="41.437" gradientUnits="userSpaceOnUse"><stop stop-color="#FF9700"/><stop offset=".998" stop-color="#FF6800"/><stop offset="1" stop-color="#FF6802"/></linearGradient><linearGradient id="paint4_linear" x1="35.826" y1="7.156" x2="35.878" y2="9.158" gradientUnits="userSpaceOnUse"><stop stop-color="#FF9700"/><stop offset=".998" stop-color="#FF6800"/><stop offset="1" stop-color="#FF6802"/></linearGradient><linearGradient id="paint5_linear" x1="33.974" y1="11.822" x2="34.014" y2="13.825" gradientUnits="userSpaceOnUse"><stop stop-color="#FF9700"/><stop offset=".998" stop-color="#FF6800"/><stop offset="1" stop-color="#FF6802"/></linearGradient><linearGradient id="paint6_linear" x1="21.481" y1="36.322" x2="21.653" y2="38.311" gradientUnits="userSpaceOnUse"><stop stop-color="#FF9700"/><stop offset=".998" stop-color="#FF6800"/><stop offset="1" stop-color="#FF6802"/></linearGradient><linearGradient id="paint7_linear" x1="20.932" y1="40.989" x2="21.187" y2="42.959" gradientUnits="userSpaceOnUse"><stop stop-color="#FF9700"/><stop offset=".998" stop-color="#FF6800"/><stop offset="1" stop-color="#FF6802"/></linearGradient></defs></svg>