<svg width="70" height="70" fill="none" xmlns="http://www.w3.org/2000/svg"><path d="M50.166 29.167c-10.953 0-19.833 8.88-19.833 19.833 0 10.953 8.88 19.833 19.833 19.833C61.12 68.833 70 59.953 70 49c-.012-10.948-8.885-19.821-19.834-19.833zm0 37.333c-9.664 0-17.5-7.835-17.5-17.5s7.836-17.5 17.5-17.5c9.665 0 17.5 7.835 17.5 17.5-.01 9.66-7.84 17.49-17.5 17.5z" fill="url(#paint0_linear)"/><path d="M51.333 45.715V38.5H49v7.215a3.497 3.497 0 00-2.119 2.118H42v2.334h4.881a3.492 3.492 0 104.452-4.452zm-1.166 4.452a1.167 1.167 0 110-2.334 1.167 1.167 0 010 2.334z" fill="url(#paint1_linear)"/><path d="M35 47.833h2.333v2.334H35v-2.334z" fill="url(#paint2_linear)"/><path d="M49 61.833h2.333v2.334H49v-2.334z" fill="url(#paint3_linear)"/><path d="M63 47.833h2.333v2.334H63v-2.334z" fill="url(#paint4_linear)"/><path d="M49 33.833h2.333v2.334H49v-2.334z" fill="url(#paint5_linear)"/><path d="M2.333 51.333V17.5H56V28h2.333V11.667A5.84 5.84 0 0052.5 5.833h-8.167V4.667a3.5 3.5 0 00-7 0v1.166H21V4.667a3.5 3.5 0 00-7 0v1.166H5.833A5.84 5.84 0 000 11.667v39.666a5.84 5.84 0 005.833 5.834h23.334v-2.334H5.833a3.5 3.5 0 01-3.5-3.5zM39.667 4.667a1.167 1.167 0 112.333 0v4.666a1.167 1.167 0 01-2.333 0V4.667zm-23.334 0a1.167 1.167 0 012.334 0v4.666a1.167 1.167 0 01-2.334 0V4.667zm-10.5 3.5H14v1.166a3.5 3.5 0 007 0V8.167h16.333v1.166a3.5 3.5 0 007 0V8.167H52.5a3.5 3.5 0 013.5 3.5v3.5H2.333v-3.5a3.5 3.5 0 013.5-3.5z" fill="url(#paint6_linear)"/><path d="M16.333 26.833A2.333 2.333 0 0014 24.5H9.333A2.333 2.333 0 007 26.833V31.5a2.333 2.333 0 002.333 2.333H14a2.333 2.333 0 002.333-2.333v-4.667zm-7 4.667v-4.667H14V31.5H9.333z" fill="url(#paint7_linear)"/><path d="M28 26.833a2.333 2.333 0 00-2.333-2.333H21a2.333 2.333 0 00-2.333 2.333V31.5A2.333 2.333 0 0021 33.833h4.667A2.333 2.333 0 0028 31.5v-4.667zM21 31.5v-4.667h4.667V31.5H21z" fill="url(#paint8_linear)"/><path d="M39.666 30.333v-3.5a2.333 2.333 0 00-2.333-2.333h-4.667a2.333 2.333 0 00-2.333 2.333V31.5a2.333 2.333 0 002.333 2.333H35V31.5h-2.334v-4.667h4.667v3.5h2.333z" fill="url(#paint9_linear)"/><path d="M14 38.5H9.333A2.333 2.333 0 007 40.833V45.5a2.333 2.333 0 002.333 2.333H14a2.333 2.333 0 002.333-2.333v-4.667A2.333 2.333 0 0014 38.5zm-4.667 7v-4.667H14V45.5H9.333z" fill="url(#paint10_linear)"/><path d="M25.667 38.5H21a2.333 2.333 0 00-2.333 2.333V45.5A2.333 2.333 0 0021 47.833h4.667A2.333 2.333 0 0028 45.5v-4.667a2.333 2.333 0 00-2.333-2.333zM21 45.5v-4.667h4.667V45.5H21z" fill="url(#paint11_linear)"/><path d="M51.333 28v-1.167A2.333 2.333 0 0049 24.5h-4.667A2.333 2.333 0 0042 26.833V28h2.333v-1.167H49V28h2.333z" fill="url(#paint12_linear)"/><defs><linearGradient id="paint0_linear" x1="39.671" y1="31.811" x2="47.948" y2="63.727" gradientUnits="userSpaceOnUse"><stop stop-color="#FF9700"/><stop offset=".998" stop-color="#FF6800"/><stop offset="1" stop-color="#FF6802"/></linearGradient><linearGradient id="paint1_linear" x1="44.747" y1="39.433" x2="48.158" y2="50.395" gradientUnits="userSpaceOnUse"><stop stop-color="#FF9700"/><stop offset=".998" stop-color="#FF6800"/><stop offset="1" stop-color="#FF6802"/></linearGradient><linearGradient id="paint2_linear" x1="35.549" y1="47.989" x2="36.036" y2="49.866" gradientUnits="userSpaceOnUse"><stop stop-color="#FF9700"/><stop offset=".998" stop-color="#FF6800"/><stop offset="1" stop-color="#FF6802"/></linearGradient><linearGradient id="paint3_linear" x1="49.549" y1="61.989" x2="50.036" y2="63.866" gradientUnits="userSpaceOnUse"><stop stop-color="#FF9700"/><stop offset=".998" stop-color="#FF6800"/><stop offset="1" stop-color="#FF6802"/></linearGradient><linearGradient id="paint4_linear" x1="63.549" y1="47.989" x2="64.036" y2="49.866" gradientUnits="userSpaceOnUse"><stop stop-color="#FF9700"/><stop offset=".998" stop-color="#FF6800"/><stop offset="1" stop-color="#FF6802"/></linearGradient><linearGradient id="paint5_linear" x1="49.549" y1="33.989" x2="50.036" y2="35.866" gradientUnits="userSpaceOnUse"><stop stop-color="#FF9700"/><stop offset=".998" stop-color="#FF6800"/><stop offset="1" stop-color="#FF6802"/></linearGradient><linearGradient id="paint6_linear" x1="13.732" y1="4.9" x2="25.005" y2="50.181" gradientUnits="userSpaceOnUse"><stop stop-color="#FF9700"/><stop offset=".998" stop-color="#FF6800"/><stop offset="1" stop-color="#FF6802"/></linearGradient><linearGradient id="paint7_linear" x1="9.197" y1="25.122" x2="11.145" y2="32.632" gradientUnits="userSpaceOnUse"><stop stop-color="#FF9700"/><stop offset=".998" stop-color="#FF6800"/><stop offset="1" stop-color="#FF6802"/></linearGradient><linearGradient id="paint8_linear" x1="20.864" y1="25.122" x2="22.812" y2="32.632" gradientUnits="userSpaceOnUse"><stop stop-color="#FF9700"/><stop offset=".998" stop-color="#FF6800"/><stop offset="1" stop-color="#FF6802"/></linearGradient><linearGradient id="paint9_linear" x1="32.53" y1="25.122" x2="34.478" y2="32.632" gradientUnits="userSpaceOnUse"><stop stop-color="#FF9700"/><stop offset=".998" stop-color="#FF6800"/><stop offset="1" stop-color="#FF6802"/></linearGradient><linearGradient id="paint10_linear" x1="9.197" y1="39.122" x2="11.145" y2="46.632" gradientUnits="userSpaceOnUse"><stop stop-color="#FF9700"/><stop offset=".998" stop-color="#FF6800"/><stop offset="1" stop-color="#FF6802"/></linearGradient><linearGradient id="paint11_linear" x1="20.864" y1="39.122" x2="22.812" y2="46.632" gradientUnits="userSpaceOnUse"><stop stop-color="#FF9700"/><stop offset=".998" stop-color="#FF6800"/><stop offset="1" stop-color="#FF6802"/></linearGradient><linearGradient id="paint12_linear" x1="44.197" y1="24.733" x2="44.487" y2="27.711" gradientUnits="userSpaceOnUse"><stop stop-color="#FF9700"/><stop offset=".998" stop-color="#FF6800"/><stop offset="1" stop-color="#FF6802"/></linearGradient></defs></svg>