<svg width="16" height="16" fill="none" xmlns="http://www.w3.org/2000/svg"><path fill-rule="evenodd" clip-rule="evenodd" d="M14.38 11.24a3.156 3.156 0 01-3.14 3.14H4.76a3.156 3.156 0 01-3.14-3.14V4.76a3.155 3.155 0 013.14-3.14h6.48a3.155 3.155 0 013.14 3.14v6.48zM11.24 0H4.76A4.754 4.754 0 000 4.76v6.48A4.753 4.753 0 004.76 16h6.48A4.753 4.753 0 0016 11.24V4.76A4.754 4.754 0 0011.24 0zM8 10.43c-1.317 0-2.532-1.113-2.532-2.531A2.508 2.508 0 018 5.367 2.508 2.508 0 0110.53 7.9 2.507 2.507 0 018 10.43zm0-6.58c-2.228 0-4.152 1.822-4.152 4.153 0 2.226 1.823 4.15 4.152 4.15 2.228 0 4.152-1.822 4.152-4.15 0-2.33-1.823-4.153-4.152-4.153zm5.165 0a1.013 1.013 0 10-2.027 0 1.013 1.013 0 002.027 0z" fill="url(#paint0_linear)"/><defs><linearGradient id="paint0_linear" x1="3.767" y1="1.067" x2="7.105" y2="13.94" gradientUnits="userSpaceOnUse"><stop stop-color="#FF9700"/><stop offset=".998" stop-color="#FF6800"/><stop offset="1" stop-color="#FF6802"/></linearGradient></defs></svg>