<svg width="101" height="20" fill="none" xmlns="http://www.w3.org/2000/svg"><path d="M23.592 4.745h-2.48a.704.704 0 00-.556.193.681.681 0 00-.204.545v7.942a.684.684 0 00.189.522.708.708 0 00.516.22.717.717 0 00.517-.22.693.693 0 00.188-.522v-2.836h1.962c1.884 0 2.903-1.539 2.903-2.978a2.86 2.86 0 00-.243-1.119 2.901 2.901 0 00-.664-.94 2.958 2.958 0 00-.981-.613 2.995 2.995 0 00-1.147-.194zm1.585 2.912c0 .645-.508 1.539-1.46 1.539h-1.955V6.135h1.924a1.492 1.492 0 011.082.443 1.442 1.442 0 01.409 1.08zm8.233 5.086h-3.647v-7.31a.69.69 0 00-.207-.491.713.713 0 00-1 0 .689.689 0 00-.206.491v7.76c0 .595.313.94.858.94h4.202a.713.713 0 00.5-.204.69.69 0 000-.983.713.713 0 00-.5-.203zm17.56-.778a.684.684 0 00-.489.206 3.173 3.173 0 01-2.072.75c-1.938 0-2.95-1.76-2.95-3.5 0-1.655.918-3.405 2.94-3.405.673 0 1.625.238 2.096.701a.866.866 0 00.562.219.72.72 0 00.509-.221.697.697 0 00.19-.514.784.784 0 00-.316-.619 4.623 4.623 0 00-2.99-1.052c-2.948 0-4.49 2.502-4.49 4.964 0 2.339 1.384 4.854 4.415 4.854a4.844 4.844 0 003.028-1.06.82.82 0 00.27-.631.653.653 0 00-.197-.498.676.676 0 00-.507-.194zm7.836.778h-3.923V9.967h3.24a.656.656 0 00.518-.175.635.635 0 00.195-.504.65.65 0 00-.191-.515.674.674 0 00-.522-.196h-3.24V6.145h3.825a.66.66 0 00.521-.18.637.637 0 00.193-.508.633.633 0 00-.19-.515.654.654 0 00-.523-.184H54.23a.734.734 0 00-.568.223.71.71 0 00-.192.572v7.782c0 .516.121.798.76.798h4.576c.491 0 .784-.258.784-.688 0-.209-.074-.702-.784-.702zm6.856-3.637c-.199-.092-.397-.182-.582-.281l-.37-.189c-.828-.423-1.608-.824-1.608-1.343.013-.333.158-.649.402-.88.245-.231.57-.36.91-.361h.016a3.06 3.06 0 011.851.635l.064.04c.157.122.346.197.545.215a.726.726 0 00.5-.22.704.704 0 00.196-.505 1.008 1.008 0 00-.45-.754 4.473 4.473 0 00-2.537-.857c-1.794 0-3.045 1.125-3.045 2.733 0 1.39 1.42 2.105 2.715 2.757.202.102.41.191.62.28.877.378 1.382.663 1.416 1.39.043.95-1.834 1.735-3.557.699a1.133 1.133 0 00-.575-.185.635.635 0 00-.492.178.617.617 0 00-.181.483.884.884 0 00.458.745 4.206 4.206 0 002.267.638c2.332 0 3.617-.933 3.617-2.62 0-1.592-1.16-2.128-2.18-2.598zm10.353-4.308h-6.032a.684.684 0 00-.54.178.66.66 0 00-.207.52.652.652 0 00.212.514.675.675 0 00.535.175h2.304v7.24a.65.65 0 00.175.551.674.674 0 00.549.206.682.682 0 00.532-.216.659.659 0 00.167-.541v-7.24h2.315a.683.683 0 00.521-.183.661.661 0 00.206-.506.651.651 0 00-.205-.516.675.675 0 00-.532-.182zm8.32 8.375L81.49 5.516a.973.973 0 00-.355-.512 1 1 0 00-1.195 0 .973.973 0 00-.354.512l-2.753 7.667a1.074 1.074 0 00-.06.331.614.614 0 00.176.472.633.633 0 00.473.19.84.84 0 00.504-.172.817.817 0 00.294-.437l.696-1.939h3.25l.878 2.111a.68.68 0 00.261.335.698.698 0 00.412.119.65.65 0 00.486-.185.63.63 0 00.187-.477.865.865 0 00-.054-.358zm-2.634-2.941h-2.355l1.184-3.187 1.17 3.187zm8.836.088a2.913 2.913 0 001.435-1.344c.305-.6.39-1.283.238-1.936a2.881 2.881 0 00-1.069-1.643 2.967 2.967 0 00-1.886-.6H86.97c-.673 0-.955.332-.955 1.07v7.518c0 .721.498.797.713.797.437 0 .7-.298.7-.794v-2.763h1.625l1.877 3.19a.67.67 0 00.65.38.63.63 0 00.477-.186.61.61 0 00.172-.475 1.183 1.183 0 00-.145-.546l-1.547-2.667zm.306-2.62a1.464 1.464 0 01-.417 1.079 1.511 1.511 0 01-1.077.46h-1.921V6.184h1.92a1.519 1.519 0 011.073.448 1.47 1.47 0 01.422 1.068zm9.42-2.902h-6.056a.684.684 0 00-.539.178.66.66 0 00-.208.52.654.654 0 00.212.514.675.675 0 00.535.175h2.305v7.24a.653.653 0 00.176.552.674.674 0 00.55.205.681.681 0 00.533-.216.659.659 0 00.167-.541v-7.24h2.325a.686.686 0 00.522-.183.66.66 0 00.205-.505.642.642 0 00-.044-.278.675.675 0 00-.683-.42zm-57.335 8.345l-2.846-7.657a.972.972 0 00-.355-.512 1 1 0 00-1.194 0 .972.972 0 00-.355.512l-2.753 7.667a.957.957 0 00-.064.33.617.617 0 00.179.473.638.638 0 00.474.19.833.833 0 00.507-.178.81.81 0 00.287-.448l.7-1.939h3.25l.878 2.111a.663.663 0 00.259.339.681.681 0 00.414.115.66.66 0 00.483-.187.638.638 0 00.19-.475.924.924 0 00-.054-.34zm-2.634-2.942h-2.355l1.184-3.186 1.17 3.186zM14.007 2.419A8.132 8.132 0 0011.37.64 8.242 8.242 0 008.24 0h-.054a8.294 8.294 0 00-5.753 2.344A8.022 8.022 0 000 7.98v11.175a.812.812 0 00.27.609.862.862 0 001.177 0l4.165-4.037c.825.19 1.665.315 2.51.374h.07a8.39 8.39 0 005.728-2.38 8.119 8.119 0 002.452-5.618 7.858 7.858 0 00-.604-3.076 7.966 7.966 0 00-1.761-2.61zM8.193 14.864h-.06a15.61 15.61 0 01-2.474-.39.853.853 0 00-.767.218l-3.634 3.507V7.995a6.798 6.798 0 012.06-4.773 7.028 7.028 0 014.868-1.988h.047a6.984 6.984 0 012.654.543c.84.352 1.599.865 2.235 1.509a6.74 6.74 0 011.5 2.205c.346.825.522 1.71.518 2.603a6.871 6.871 0 01-2.083 4.765 7.102 7.102 0 01-4.864 2.005z" fill="#AAA"/><path d="M9.928 4.914a.64.64 0 00-.858.251.616.616 0 00.253.844 2.37 2.37 0 011.042 1.105c.215.47.266.998.146 1.5-.12.502-.406.952-.811 1.279a2.417 2.417 0 01-2.901.096c-.428-.3-.743-.73-.897-1.223a2.313 2.313 0 01.043-1.507c.183-.483.522-.895.965-1.17a.63.63 0 00.3-.39.612.612 0 00-.253-.662.638.638 0 00-.72 0 3.606 3.606 0 00-1.471 1.791c-.278.74-.3 1.55-.064 2.303.237.754.719 1.41 1.372 1.867a3.697 3.697 0 004.435-.146 3.586 3.586 0 001.24-1.954 3.539 3.539 0 00-.22-2.293 3.617 3.617 0 00-1.59-1.69h-.01z" fill="#AAA"/><path d="M8.108 4.05a.642.642 0 00-.447.183.621.621 0 00-.185.44V7.32c0 .165.066.323.185.44a.638.638 0 00.894 0 .617.617 0 00.186-.44V4.672a.613.613 0 00-.186-.44.633.633 0 00-.447-.182z" fill="#AAA"/></svg>